<?xml version="1.0" encoding="UTF-8" standalone="no"?>
<!-- Created with Inkscape (http://www.inkscape.org/) -->

<svg
   width="360"
   height="360"
   id="svg3189"
   version="1.1"
   inkscape:version="1.1.2 (0a00cf5339, 2022-02-04)"
   sodipodi:docname="spring_bunny_2.svg"
   xmlns:inkscape="http://www.inkscape.org/namespaces/inkscape"
   xmlns:sodipodi="http://sodipodi.sourceforge.net/DTD/sodipodi-0.dtd"
   xmlns="http://www.w3.org/2000/svg"
   xmlns:svg="http://www.w3.org/2000/svg"
   xmlns:rdf="http://www.w3.org/1999/02/22-rdf-syntax-ns#"
   xmlns:cc="http://creativecommons.org/ns#"
   xmlns:dc="http://purl.org/dc/elements/1.1/">
  <defs
     id="defs3191" />
  <sodipodi:namedview
     inkscape:document-units="in"
     pagecolor="#ffffff"
     bordercolor="#666666"
     borderopacity="1.0"
     inkscape:pageopacity="0.0"
     inkscape:pageshadow="2"
     inkscape:zoom="1.9091334"
     inkscape:cx="353.56356"
     inkscape:cy="100.04539"
     inkscape:current-layer="layer1"
     id="namedview3193"
     showgrid="false"
     units="in"
     inkscape:window-width="2401"
     inkscape:window-height="1711"
     inkscape:window-x="226"
     inkscape:window-y="68"
     inkscape:window-maximized="0"
     inkscape:pagecheckerboard="0" />
  <metadata
     id="metadata3195">
    <rdf:RDF>
      <cc:Work
         rdf:about="">
        <dc:format>image/svg+xml</dc:format>
        <dc:type
           rdf:resource="http://purl.org/dc/dcmitype/StillImage" />
        <dc:title />
      </cc:Work>
    </rdf:RDF>
  </metadata>
  <g
     inkscape:label="Layer 1"
     inkscape:groupmode="layer"
     id="layer1"
     transform="translate(0,-405)">
    <g
       transform="matrix(1.1416527,0,0,1.1789198,-460.5884,401.12244)"
       id="g3431">
      <g
         transform="matrix(-1,0,0,1,1245.3285,-705.39254)"
         id="g4042-6-7-4-1">
        <path
           style="fill:#803300;fill-opacity:1;fill-rule:evenodd;stroke:#000000;stroke-width:5;stroke-miterlimit:4;stroke-opacity:1;stroke-dasharray:none"
           d="m 785.95751,946.18578 c -4.78509,20.72719 -18.64551,21.43474 -31.66975,0.8814 -25.96029,-9.46648 -4.54322,-30.78168 5.07772,-23.63657 -8.06038,-19.09165 21.9237,-38.09634 20.34405,-0.47402 12.51417,-9.37886 32.18024,7.50891 6.24798,23.22919 z"
           id="path3926-1-2-8-8-7"
           inkscape:connector-curvature="0"
           sodipodi:nodetypes="ccccc" />
        <path
           style="fill:#ffffff;fill-opacity:1;fill-rule:evenodd;stroke:#000000;stroke-width:5;stroke-miterlimit:4;stroke-opacity:1;stroke-dasharray:none;stroke-dashoffset:0"
           id="path3812-8-2-7-7-6-4"
           transform="translate(115.21763,498.95661)"
           d="m 555.31828,307.04272 c 0,35.56283 -12.45428,64.3922 -27.81743,64.3922 -15.36314,0 -27.81742,-28.82937 -27.81742,-64.3922 0,-35.56282 12.45428,-64.39219 27.81742,-64.39219 15.36315,0 27.81743,28.82937 27.81743,64.39219 z"
           sodipodi:type="arc"
           sodipodi:ry="64.392197"
           sodipodi:rx="27.817429"
           sodipodi:cy="307.04272"
           sodipodi:cx="527.50085" />
        <path
           style="fill:#ff9955;fill-opacity:1;fill-rule:evenodd;stroke:#000000;stroke-width:5;stroke-miterlimit:4;stroke-opacity:1"
           d="m 763.26067,937.87454 c 0,50.64146 -33.94883,44.30183 -83.45229,44.30183 -49.50345,0 -95.81558,6.33963 -95.81558,-44.30183 0,-50.64147 40.13048,-108.17888 89.63393,-108.17888 49.50346,0 89.63394,57.53741 89.63394,108.17888 z"
           id="path2985-6-5-8-4-0"
           inkscape:connector-curvature="0"
           sodipodi:nodetypes="sssss" />
        <path
           sodipodi:type="arc"
           style="fill:#ffffff;fill-opacity:1;fill-rule:evenodd;stroke:#000000;stroke-width:2;stroke-miterlimit:4;stroke-opacity:1;stroke-dasharray:none;stroke-dashoffset:0"
           id="path3756-0-7-1-6-9"
           sodipodi:cx="483.19904"
           sodipodi:cy="431.19086"
           sodipodi:rx="17.514677"
           sodipodi:ry="16.484402"
           d="m 500.71371,431.19086 c 0,9.10408 -7.84159,16.4844 -17.51467,16.4844 -9.67309,0 -17.51468,-7.38032 -17.51468,-16.4844 0,-9.10409 7.84159,-16.4844 17.51468,-16.4844 9.67308,0 17.51467,7.38031 17.51467,16.4844 z"
           transform="matrix(1.2239088,0,0,1.1754031,73.993008,391.90103)" />
        <path
           transform="translate(128.61119,465.47268)"
           sodipodi:type="arc"
           style="fill:#ffffff;fill-opacity:1;fill-rule:evenodd;stroke:#000000;stroke-width:2;stroke-miterlimit:4;stroke-opacity:1;stroke-dasharray:none;stroke-dashoffset:0"
           id="path3756-1-4-8-6-8-4"
           sodipodi:cx="483.19904"
           sodipodi:cy="431.19086"
           sodipodi:rx="17.514677"
           sodipodi:ry="16.484402"
           d="m 500.71371,431.19086 c 0,9.10408 -7.84159,16.4844 -17.51467,16.4844 -9.67309,0 -17.51468,-7.38032 -17.51468,-16.4844 0,-9.10409 7.84159,-16.4844 17.51468,-16.4844 9.67308,0 17.51467,7.38031 17.51467,16.4844 z" />
        <path
           sodipodi:type="arc"
           style="fill:#000000;fill-opacity:1;fill-rule:evenodd;stroke:#000000;stroke-width:2;stroke-miterlimit:4;stroke-opacity:1;stroke-dasharray:none;stroke-dashoffset:0"
           id="path3756-7-9-2-0-9-8"
           sodipodi:cx="483.19904"
           sodipodi:cy="431.19086"
           sodipodi:rx="17.514677"
           sodipodi:ry="16.484402"
           d="m 500.71371,431.19086 c 0,9.10408 -7.84159,16.4844 -17.51467,16.4844 -9.67309,0 -17.51468,-7.38032 -17.51468,-16.4844 0,-9.10409 7.84159,-16.4844 17.51468,-16.4844 9.67308,0 17.51467,7.38031 17.51467,16.4844 z"
           transform="matrix(0.52696018,0,0,0.52864518,412.22563,672.83768)" />
        <path
           sodipodi:type="arc"
           style="fill:#ffffff;fill-opacity:1;fill-rule:evenodd;stroke:#000000;stroke-width:5;stroke-miterlimit:4;stroke-opacity:1;stroke-dasharray:none;stroke-dashoffset:0"
           id="path3812-60-80-5-3-2"
           sodipodi:cx="527.50085"
           sodipodi:cy="307.04272"
           sodipodi:rx="27.817429"
           sodipodi:ry="64.392197"
           d="m 555.31828,307.04272 c 0,35.56283 -12.45428,64.3922 -27.81743,64.3922 -15.36314,0 -27.81742,-28.82937 -27.81742,-64.3922 0,-35.56282 12.45428,-64.39219 27.81742,-64.39219 15.36315,0 27.81743,28.82937 27.81743,64.39219 z"
           transform="translate(183.21579,496.38093)" />
        <path
           sodipodi:type="arc"
           style="fill:#000000;fill-opacity:1;fill-rule:evenodd;stroke:none"
           id="path3812-6-3-2-8-5-4"
           sodipodi:cx="527.50085"
           sodipodi:cy="307.04272"
           sodipodi:rx="27.817429"
           sodipodi:ry="64.392197"
           d="m 555.31828,307.04272 c 0,35.56283 -12.45428,64.3922 -27.81743,64.3922 -15.36314,0 -27.81742,-28.82937 -27.81742,-64.3922 0,-35.56282 12.45428,-64.39219 27.81742,-64.39219 15.36315,0 27.81743,28.82937 27.81743,64.39219 z"
           transform="matrix(0.72222223,0,0,1,326.13783,541.19789)" />
        <path
           sodipodi:type="arc"
           style="fill:#ffaaaa;fill-opacity:1;fill-rule:evenodd;stroke:none"
           id="path3812-1-6-0-9-5-5"
           sodipodi:cx="527.50085"
           sodipodi:cy="307.04272"
           sodipodi:rx="27.817429"
           sodipodi:ry="64.392197"
           d="m 555.31828,307.04272 c 0,35.56283 -12.45428,64.3922 -27.81743,64.3922 -15.36314,0 -27.81742,-28.82937 -27.81742,-64.3922 0,-35.56282 12.45428,-64.39219 27.81742,-64.39219 15.36315,0 27.81743,28.82937 27.81743,64.39219 z"
           transform="matrix(0.68518519,0,0,0.80800001,349.796,559.96935)" />
        <path
           style="fill:#ff8080;fill-opacity:1;fill-rule:evenodd;stroke:none"
           id="path3812-1-8-2-8-0-1-5"
           transform="matrix(0.35185187,0,0,0.14400003,441.6622,881.81223)"
           d="m 555.31828,307.04272 c 0,35.56283 -12.45428,64.3922 -27.81743,64.3922 -15.36314,0 -27.81742,-28.82937 -27.81742,-64.3922 0,-35.56282 12.45428,-64.39219 27.81742,-64.39219 15.36315,0 27.81743,28.82937 27.81743,64.39219 z"
           sodipodi:type="arc"
           sodipodi:ry="64.392197"
           sodipodi:rx="27.817429"
           sodipodi:cy="307.04272"
           sodipodi:cx="527.50085" />
        <path
           style="fill:none;stroke:#000000;stroke-width:1px;stroke-linecap:butt;stroke-linejoin:miter;stroke-opacity:1"
           d="m 647.86986,923.45069 75.21008,-3.09082"
           id="path3894-4-92-0-5-1"
           inkscape:connector-curvature="0" />
        <path
           style="fill:none;stroke:#000000;stroke-width:1px;stroke-linecap:butt;stroke-linejoin:miter;stroke-opacity:1"
           d="m 642.71848,930.66262 71.08898,20.6055"
           id="path3896-5-82-0-5-7"
           inkscape:connector-curvature="0" />
        <path
           style="fill:none;stroke:#000000;stroke-width:1px;stroke-linecap:butt;stroke-linejoin:miter;stroke-opacity:1"
           d="m 641.68821,945.08647 47.39265,19.57523"
           id="path3898-8-0-7-8-1"
           inkscape:connector-curvature="0" />
        <path
           style="fill:none;stroke:#000000;stroke-width:1px;stroke-linecap:butt;stroke-linejoin:miter;stroke-opacity:1"
           d="M 609.74968,921.39014 571.6295,912.11767"
           id="path3900-8-5-2-4-1"
           inkscape:connector-curvature="0" />
        <path
           style="fill:none;stroke:#000000;stroke-width:1px;stroke-linecap:butt;stroke-linejoin:miter;stroke-opacity:1"
           d="m 611.81023,933.75344 -35.02935,0"
           id="path3902-1-5-5-0-5"
           inkscape:connector-curvature="0" />
        <path
           style="fill:none;stroke:#000000;stroke-width:1px;stroke-linecap:butt;stroke-linejoin:miter;stroke-opacity:1"
           d="m 611.81023,943.02592 -38.12018,10.30275"
           id="path3904-2-2-5-5-2"
           inkscape:connector-curvature="0" />
        <path
           style="fill:none;stroke:#000000;stroke-width:3;stroke-linecap:butt;stroke-linejoin:miter;stroke-miterlimit:4;stroke-opacity:1;stroke-dasharray:none"
           d="m 626.23408,934.78372 c -1.36222,30.98286 -7.65635,29.90831 -14.42385,25.75688"
           id="path3906-1-7-2-4-7"
           inkscape:connector-curvature="0"
           sodipodi:nodetypes="cc" />
        <path
           style="fill:none;stroke:#000000;stroke-width:3;stroke-linecap:butt;stroke-linejoin:miter;stroke-miterlimit:4;stroke-opacity:1;stroke-dasharray:none"
           d="m 626.23408,935.26465 c 1.36222,30.98286 7.65635,29.90831 14.42385,25.75688"
           id="path3906-2-4-6-1-7-6"
           inkscape:connector-curvature="0"
           sodipodi:nodetypes="cc" />
      </g>
      <path
         sodipodi:type="arc"
         style="fill:#000000;fill-opacity:1;fill-rule:evenodd;stroke:#000000;stroke-width:2;stroke-miterlimit:4;stroke-opacity:1;stroke-dasharray:none;stroke-dashoffset:0"
         id="path3756-7-4-4-7-9-8-0"
         sodipodi:cx="483.19904"
         sodipodi:cy="431.19086"
         sodipodi:rx="17.514677"
         sodipodi:ry="16.484402"
         d="m 500.71371,431.19086 c 0,9.10408 -7.84159,16.4844 -17.51467,16.4844 -9.67309,0 -17.51468,-7.38032 -17.51468,-16.4844 0,-9.10409 7.84159,-16.4844 17.51468,-16.4844 9.67308,0 17.51467,7.38031 17.51467,16.4844 z"
         transform="matrix(0.41361681,0,0,0.43986045,434.00967,2.3237661)" />
    </g>
  </g>
</svg>
