<?xml version="1.0" encoding="UTF-8" standalone="no"?>
<!-- Created with Inkscape (http://www.inkscape.org/) -->

<svg
   width="1168.5197"
   height="50.700809"
   viewBox="0 0 309.17068 13.414643"
   version="1.1"
   id="svg8852"
   inkscape:version="1.1.2 (0a00cf5339, 2022-02-04)"
   sodipodi:docname="wave_many.svg"
   xmlns:inkscape="http://www.inkscape.org/namespaces/inkscape"
   xmlns:sodipodi="http://sodipodi.sourceforge.net/DTD/sodipodi-0.dtd"
   xmlns="http://www.w3.org/2000/svg"
   xmlns:svg="http://www.w3.org/2000/svg">
  <sodipodi:namedview
     id="namedview8854"
     pagecolor="#ffffff"
     bordercolor="#666666"
     borderopacity="1.0"
     inkscape:pageshadow="2"
     inkscape:pageopacity="0.0"
     inkscape:pagecheckerboard="0"
     inkscape:document-units="mm"
     showgrid="false"
     units="px"
     inkscape:zoom="3.24539"
     inkscape:cx="207.6792"
     inkscape:cy="109.69406"
     inkscape:window-width="3840"
     inkscape:window-height="2071"
     inkscape:window-x="0"
     inkscape:window-y="0"
     inkscape:window-maximized="1"
     inkscape:current-layer="layer1" />
  <defs
     id="defs8849" />
  <g
     inkscape:label="Layer 1"
     inkscape:groupmode="layer"
     id="layer1">
    <path
       style="fill:#00a0f0;stroke:#00a0f0;stroke-width:0.013286px;stroke-linecap:butt;stroke-linejoin:miter;stroke-opacity:1"
       d="m 0.06642319,6.1733869 c 0,0 0.98311001,0.02704 1.80841391,-0.33698 0,0 1.21872,-0.731801 1.886422,-1.271083 0.773952,-0.625097 1.481167,-1.351152 2.024603,-1.341135 1.355351,0.02498 1.464203,0.725009 2.304702,1.91023 0.43331,0.611026 0.78388,0.730175 1.5683839,0.921266 0.1872842,0.04562 0.356935,0.062 0.543037,0.0811 0.274284,0.02815 0.565686,0.0366 0.565686,0.0366 l 0.0067,7.2951511 H 0.06643719 Z"
       id="path484"
       sodipodi:nodetypes="csssssscccc" />
    <path
       style="fill:#00a0f0;stroke:#00a0f0;stroke-width:0.013286px;stroke-linecap:butt;stroke-linejoin:miter;stroke-opacity:1"
       d="m 10.767671,6.1733849 c 0,0 0.98311,0.02704 1.808414,-0.33698 0,0 1.21872,-0.731801 1.886422,-1.271083 0.773952,-0.625097 1.481167,-1.351152 2.024603,-1.341135 1.355351,0.02498 1.464203,0.725009 2.304702,1.91023 0.43331,0.611026 0.78388,0.730175 1.568384,0.921266 0.187284,0.04562 0.356935,0.062 0.543037,0.0811 0.274284,0.02815 0.565686,0.0366 0.565686,0.0366 l 0.0067,7.2951511 H 10.767685 Z"
       id="path484-3"
       sodipodi:nodetypes="csssssscccc" />
    <path
       style="fill:#00a0f0;stroke:#00a0f0;stroke-width:0.013286px;stroke-linecap:butt;stroke-linejoin:miter;stroke-opacity:1"
       d="m 21.468919,6.1733829 c 0,0 0.98311,0.02704 1.808414,-0.33698 0,0 1.21872,-0.731801 1.886422,-1.271083 0.773952,-0.625097 1.481167,-1.351152 2.024603,-1.341135 1.355351,0.02498 1.464203,0.725009 2.304702,1.91023 0.43331,0.611026 0.78388,0.730175 1.568384,0.921266 0.187284,0.04562 0.356935,0.062 0.543037,0.0811 0.274284,0.02815 0.565686,0.0366 0.565686,0.0366 l 0.0067,7.2951511 H 21.468933 Z"
       id="path484-6"
       sodipodi:nodetypes="csssssscccc" />
    <path
       style="fill:#00a0f0;stroke:#00a0f0;stroke-width:0.013286px;stroke-linecap:butt;stroke-linejoin:miter;stroke-opacity:1"
       d="m 32.170167,6.1733809 c 0,0 0.98311,0.02704 1.808414,-0.33698 0,0 1.21872,-0.731801 1.886422,-1.271083 0.773952,-0.625097 1.481167,-1.351152 2.024603,-1.341135 1.355351,0.02498 1.464203,0.725009 2.304702,1.91023 0.43331,0.611026 0.78388,0.730175 1.568384,0.921266 0.187284,0.04562 0.356935,0.062 0.543037,0.0811 0.274284,0.02815 0.565686,0.0366 0.565686,0.0366 l 0.0067,7.2951511 H 32.170181 Z"
       id="path484-7"
       sodipodi:nodetypes="csssssscccc" />
    <path
       style="fill:#00a0f0;stroke:#00a0f0;stroke-width:0.013286px;stroke-linecap:butt;stroke-linejoin:miter;stroke-opacity:1"
       d="m 42.871415,6.1733789 c 0,0 0.98311,0.02704 1.808414,-0.33698 0,0 1.21872,-0.731801 1.886422,-1.271083 0.773952,-0.625097 1.481167,-1.351152 2.024603,-1.341135 1.355351,0.02498 1.464203,0.725009 2.304702,1.91023 0.43331,0.611026 0.78388,0.730175 1.568384,0.921266 0.187284,0.04562 0.356935,0.062 0.543037,0.0811 0.274284,0.02815 0.565686,0.0366 0.565686,0.0366 l 0.0067,7.2951511 H 42.871429 Z"
       id="path484-5"
       sodipodi:nodetypes="csssssscccc" />
    <path
       style="fill:#00a0f0;stroke:#00a0f0;stroke-width:0.013286px;stroke-linecap:butt;stroke-linejoin:miter;stroke-opacity:1"
       d="m 53.572663,6.1733769 c 0,0 0.98311,0.02704 1.808414,-0.33698 0,0 1.21872,-0.731801 1.886422,-1.271083 0.773952,-0.625097 1.481167,-1.351152 2.024603,-1.341135 1.355351,0.02498 1.464203,0.725009 2.304702,1.91023 0.43331,0.611026 0.78388,0.730175 1.568384,0.921266 0.187284,0.04562 0.356935,0.062 0.543037,0.0811 0.274284,0.02815 0.565686,0.0366 0.565686,0.0366 l 0.0067,7.2951511 H 53.572677 Z"
       id="path484-35"
       sodipodi:nodetypes="csssssscccc" />
    <path
       style="fill:#00a0f0;stroke:#00a0f0;stroke-width:0.013286px;stroke-linecap:butt;stroke-linejoin:miter;stroke-opacity:1"
       d="m 64.273911,6.1733749 c 0,0 0.98311,0.02704 1.808414,-0.33698 0,0 1.21872,-0.731801 1.886422,-1.271083 0.773952,-0.625097 1.481167,-1.351152 2.024603,-1.341135 1.355351,0.02498 1.464203,0.725009 2.304702,1.91023 0.43331,0.611026 0.78388,0.730175 1.568384,0.921266 0.187284,0.04562 0.356935,0.062 0.543037,0.0811 0.274284,0.02815 0.565686,0.0366 0.565686,0.0366 l 0.0067,7.2951511 H 64.273925 Z"
       id="path484-62"
       sodipodi:nodetypes="csssssscccc" />
    <path
       style="fill:#00a0f0;stroke:#00a0f0;stroke-width:0.013286px;stroke-linecap:butt;stroke-linejoin:miter;stroke-opacity:1"
       d="m 74.981845,6.173375 c 0,0 0.98311,0.02704 1.808414,-0.33698 0,0 1.21872,-0.731801 1.886422,-1.271083 0.773952,-0.625097 1.481167,-1.351152 2.024603,-1.341135 1.355351,0.02498 1.464203,0.725009 2.304702,1.91023 0.43331,0.611026 0.78388,0.730175 1.568384,0.921266 0.187284,0.04562 0.356935,0.062 0.543037,0.0811 0.274284,0.02815 0.565686,0.0366 0.565686,0.0366 l 0.0067,7.295151 H 74.981859 Z"
       id="path484-9"
       sodipodi:nodetypes="csssssscccc" />
    <path
       style="fill:#00a0f0;stroke:#00a0f0;stroke-width:0.013286px;stroke-linecap:butt;stroke-linejoin:miter;stroke-opacity:1"
       d="m 85.683093,6.173373 c 0,0 0.98311,0.02704 1.808414,-0.33698 0,0 1.21872,-0.731801 1.886422,-1.271083 0.773952,-0.625097 1.481167,-1.351152 2.024603,-1.341135 1.355351,0.02498 1.464203,0.725009 2.304702,1.91023 0.43331,0.611026 0.78388,0.730175 1.568384,0.921266 0.187284,0.04562 0.356935,0.062 0.543037,0.0811 0.274284,0.02815 0.565686,0.0366 0.565686,0.0366 l 0.0067,7.295151 H 85.683107 Z"
       id="path484-3-1"
       sodipodi:nodetypes="csssssscccc" />
    <path
       style="fill:#00a0f0;stroke:#00a0f0;stroke-width:0.013286px;stroke-linecap:butt;stroke-linejoin:miter;stroke-opacity:1"
       d="m 96.384341,6.173371 c 0,0 0.98311,0.02704 1.808414,-0.33698 0,0 1.21872,-0.731801 1.886425,-1.271083 0.77395,-0.625097 1.48116,-1.351152 2.0246,-1.341135 1.35535,0.02498 1.4642,0.725009 2.3047,1.91023 0.43331,0.611026 0.78388,0.730175 1.56839,0.921266 0.18728,0.04562 0.35693,0.062 0.54303,0.0811 0.27429,0.02815 0.56569,0.0366 0.56569,0.0366 l 0.007,7.295151 H 96.384355 Z"
       id="path484-6-2"
       sodipodi:nodetypes="csssssscccc" />
    <path
       style="fill:#00a0f0;stroke:#00a0f0;stroke-width:0.013286px;stroke-linecap:butt;stroke-linejoin:miter;stroke-opacity:1"
       d="m 107.08559,6.173369 c 0,0 0.98311,0.02704 1.80841,-0.33698 0,0 1.21872,-0.731801 1.88642,-1.271083 0.77396,-0.625097 1.48117,-1.351152 2.02461,-1.341135 1.35535,0.02498 1.4642,0.725009 2.3047,1.91023 0.43331,0.611026 0.78388,0.730175 1.56838,0.921266 0.18729,0.04562 0.35694,0.062 0.54304,0.0811 0.27428,0.02815 0.56569,0.0366 0.56569,0.0366 l 0.007,7.295151 H 107.0856 Z"
       id="path484-7-7"
       sodipodi:nodetypes="csssssscccc" />
    <path
       style="fill:#00a0f0;stroke:#00a0f0;stroke-width:0.013286px;stroke-linecap:butt;stroke-linejoin:miter;stroke-opacity:1"
       d="m 117.78684,6.173367 c 0,0 0.98311,0.02704 1.80841,-0.33698 0,0 1.21872,-0.731801 1.88642,-1.271083 0.77395,-0.625097 1.48117,-1.351152 2.02461,-1.341135 1.35535,0.02498 1.4642,0.725009 2.3047,1.91023 0.43331,0.611026 0.78388,0.730175 1.56838,0.921266 0.18729,0.04562 0.35694,0.062 0.54304,0.0811 0.27428,0.02815 0.56568,0.0366 0.56568,0.0366 l 0.007,7.295151 h -10.70793 z"
       id="path484-5-0"
       sodipodi:nodetypes="csssssscccc" />
    <path
       style="fill:#00a0f0;stroke:#00a0f0;stroke-width:0.013286px;stroke-linecap:butt;stroke-linejoin:miter;stroke-opacity:1"
       d="m 128.48808,6.173365 c 0,0 0.98311,0.02704 1.80842,-0.33698 0,0 1.21872,-0.731801 1.88642,-1.271083 0.77395,-0.625097 1.48117,-1.351152 2.0246,-1.341135 1.35535,0.02498 1.46421,0.725009 2.30471,1.91023 0.43331,0.611026 0.78388,0.730175 1.56838,0.921266 0.18728,0.04562 0.35693,0.062 0.54304,0.0811 0.27428,0.02815 0.56568,0.0366 0.56568,0.0366 l 0.007,7.295151 H 128.4881 Z"
       id="path484-35-9"
       sodipodi:nodetypes="csssssscccc" />
    <path
       style="fill:#00a0f0;stroke:#00a0f0;stroke-width:0.013286px;stroke-linecap:butt;stroke-linejoin:miter;stroke-opacity:1"
       d="m 139.18933,6.173363 c 0,0 0.98311,0.02704 1.80842,-0.33698 0,0 1.21872,-0.731801 1.88642,-1.271083 0.77395,-0.625097 1.48117,-1.351152 2.0246,-1.341135 1.35535,0.02498 1.4642,0.725009 2.3047,1.91023 0.43331,0.611026 0.78388,0.730175 1.56839,0.921266 0.18728,0.04562 0.35693,0.062 0.54303,0.0811 0.27429,0.02815 0.56569,0.0366 0.56569,0.0366 l 0.007,7.295151 h -10.70793 z"
       id="path484-62-3"
       sodipodi:nodetypes="csssssscccc" />
    <path
       style="fill:#00a0f0;stroke:#00a0f0;stroke-width:0.013286px;stroke-linecap:butt;stroke-linejoin:miter;stroke-opacity:1"
       d="m 149.89726,6.173363 c 0,0 0.98311,0.02704 1.80842,-0.33698 0,0 1.21872,-0.731801 1.88642,-1.271083 0.77395,-0.625097 1.48117,-1.351152 2.0246,-1.341135 1.35535,0.02498 1.46421,0.725009 2.3047,1.91023 0.43331,0.611026 0.78388,0.730175 1.56839,0.921266 0.18728,0.04562 0.35693,0.062 0.54303,0.0811 0.27429,0.02815 0.56569,0.0366 0.56569,0.0366 l 0.007,7.295151 h -10.70793 z"
       id="path484-60"
       sodipodi:nodetypes="csssssscccc" />
    <path
       style="fill:#00a0f0;stroke:#00a0f0;stroke-width:0.013286px;stroke-linecap:butt;stroke-linejoin:miter;stroke-opacity:1"
       d="m 160.59851,6.173361 c 0,0 0.98311,0.02704 1.80841,-0.33698 0,0 1.21872,-0.731801 1.88643,-1.271083 0.77395,-0.625097 1.48116,-1.351152 2.0246,-1.341135 1.35535,0.02498 1.4642,0.725009 2.3047,1.91023 0.43331,0.611026 0.78388,0.730175 1.56839,0.921266 0.18728,0.04562 0.35693,0.062 0.54303,0.0811 0.27429,0.02815 0.56569,0.0366 0.56569,0.0366 l 0.007,7.295151 h -10.70794 z"
       id="path484-3-6"
       sodipodi:nodetypes="csssssscccc" />
    <path
       style="fill:#00a0f0;stroke:#00a0f0;stroke-width:0.013286px;stroke-linecap:butt;stroke-linejoin:miter;stroke-opacity:1"
       d="m 171.29976,6.173359 c 0,0 0.98311,0.02704 1.80841,-0.33698 0,0 1.21872,-0.731801 1.88642,-1.271083 0.77396,-0.625097 1.48117,-1.351152 2.02461,-1.341135 1.35535,0.02498 1.4642,0.725009 2.3047,1.91023 0.43331,0.611026 0.78388,0.730175 1.56838,0.921266 0.18729,0.04562 0.35694,0.062 0.54304,0.0811 0.27428,0.02815 0.56569,0.0366 0.56569,0.0366 l 0.007,7.295151 h -10.70794 z"
       id="path484-6-26"
       sodipodi:nodetypes="csssssscccc" />
    <path
       style="fill:#00a0f0;stroke:#00a0f0;stroke-width:0.013286px;stroke-linecap:butt;stroke-linejoin:miter;stroke-opacity:1"
       d="m 182.00101,6.173357 c 0,0 0.98311,0.02704 1.80841,-0.33698 0,0 1.21872,-0.731801 1.88642,-1.271083 0.77395,-0.625097 1.48117,-1.351152 2.02461,-1.341135 1.35535,0.02498 1.4642,0.725009 2.3047,1.91023 0.43331,0.611026 0.78388,0.730175 1.56838,0.921266 0.18729,0.04562 0.35694,0.062 0.54304,0.0811 0.27428,0.02815 0.56568,0.0366 0.56568,0.0366 l 0.007,7.295151 h -10.70793 z"
       id="path484-7-1"
       sodipodi:nodetypes="csssssscccc" />
    <path
       style="fill:#00a0f0;stroke:#00a0f0;stroke-width:0.013286px;stroke-linecap:butt;stroke-linejoin:miter;stroke-opacity:1"
       d="m 192.70225,6.173355 c 0,0 0.98311,0.02704 1.80842,-0.33698 0,0 1.21872,-0.731801 1.88642,-1.271083 0.77395,-0.625097 1.48117,-1.351152 2.0246,-1.341135 1.35535,0.02498 1.46421,0.725009 2.30471,1.91023 0.43331,0.611026 0.78388,0.730175 1.56838,0.921266 0.18728,0.04562 0.35693,0.062 0.54304,0.0811 0.27428,0.02815 0.56568,0.0366 0.56568,0.0366 l 0.007,7.295151 h -10.70793 z"
       id="path484-5-8"
       sodipodi:nodetypes="csssssscccc" />
    <path
       style="fill:#00a0f0;stroke:#00a0f0;stroke-width:0.013286px;stroke-linecap:butt;stroke-linejoin:miter;stroke-opacity:1"
       d="m 203.4035,6.173353 c 0,0 0.98311,0.02704 1.80842,-0.33698 0,0 1.21872,-0.731801 1.88642,-1.271083 0.77395,-0.625097 1.48117,-1.351152 2.0246,-1.341135 1.35535,0.02498 1.4642,0.725009 2.3047,1.91023 0.43331,0.611026 0.78388,0.730175 1.56839,0.921266 0.18728,0.04562 0.35693,0.062 0.54303,0.0811 0.27429,0.02815 0.56569,0.0366 0.56569,0.0366 l 0.007,7.295151 h -10.70793 z"
       id="path484-35-7"
       sodipodi:nodetypes="csssssscccc" />
    <path
       style="fill:#00a0f0;stroke:#00a0f0;stroke-width:0.013286px;stroke-linecap:butt;stroke-linejoin:miter;stroke-opacity:1"
       d="m 299.7281,6.173339 c 0,0 0.98311,0.02704 1.80842,-0.33698 0,0 1.21872,-0.731801 1.88642,-1.271083 0.77395,-0.625097 1.48117,-1.351152 2.0246,-1.341135 1.35535,0.02498 1.4642,0.725009 2.3047,1.91023 0.43331,0.611026 0.78388,0.730175 1.56839,0.921266 0.18728,0.04562 0.35693,0.062 0.54303,0.0811 0.27429,0.02815 0.56569,0.0366 0.56569,0.0366 l 0.007,7.295151 h -10.70793 z"
       id="path484-35-7-8"
       sodipodi:nodetypes="csssssscccc" />
    <path
       style="fill:#00a0f0;stroke:#00a0f0;stroke-width:0.013286px;stroke-linecap:butt;stroke-linejoin:miter;stroke-opacity:1"
       d="m 214.10475,6.173351 c 0,0 0.98311,0.02704 1.80841,-0.33698 0,0 1.21872,-0.731801 1.88643,-1.271083 0.77395,-0.625097 1.48116,-1.351152 2.0246,-1.341135 1.35535,0.02498 1.4642,0.725009 2.3047,1.91023 0.43331,0.611026 0.78388,0.730175 1.56839,0.921266 0.18728,0.04562 0.35693,0.062 0.54303,0.0811 0.27429,0.02815 0.56569,0.0366 0.56569,0.0366 l 0.007,7.295151 h -10.70794 z"
       id="path484-62-9"
       sodipodi:nodetypes="csssssscccc" />
    <path
       style="fill:#00a0f0;stroke:#00a0f0;stroke-width:0.013286px;stroke-linecap:butt;stroke-linejoin:miter;stroke-opacity:1"
       d="m 224.81268,6.173351 c 0,0 0.98311,0.02704 1.80842,-0.33698 0,0 1.21872,-0.731801 1.88642,-1.271083 0.77395,-0.625097 1.48117,-1.351152 2.0246,-1.341135 1.35535,0.02498 1.46421,0.725009 2.3047,1.91023 0.43331,0.611026 0.78388,0.730175 1.56839,0.921266 0.18728,0.04562 0.35693,0.062 0.54303,0.0811 0.27429,0.02815 0.56569,0.0366 0.56569,0.0366 l 0.007,7.295151 H 224.813 Z"
       id="path484-2"
       sodipodi:nodetypes="csssssscccc" />
    <path
       style="fill:#00a0f0;stroke:#00a0f0;stroke-width:0.013286px;stroke-linecap:butt;stroke-linejoin:miter;stroke-opacity:1"
       d="m 235.51393,6.173349 c 0,0 0.98311,0.02704 1.80841,-0.33698 0,0 1.21872,-0.731801 1.88643,-1.271083 0.77395,-0.625097 1.48116,-1.351152 2.0246,-1.341135 1.35535,0.02498 1.4642,0.725009 2.3047,1.91023 0.43331,0.611026 0.78388,0.730175 1.56839,0.921266 0.18728,0.04562 0.35693,0.062 0.54303,0.0811 0.27429,0.02815 0.56569,0.0366 0.56569,0.0366 l 0.007,7.295151 h -10.70794 z"
       id="path484-3-0"
       sodipodi:nodetypes="csssssscccc" />
    <path
       style="fill:#00a0f0;stroke:#00a0f0;stroke-width:0.013286px;stroke-linecap:butt;stroke-linejoin:miter;stroke-opacity:1"
       d="m 246.21518,6.173347 c 0,0 0.98311,0.02704 1.80841,-0.33698 0,0 1.21872,-0.731801 1.88642,-1.271083 0.77396,-0.625097 1.48117,-1.351152 2.02461,-1.341135 1.35535,0.02498 1.4642,0.725009 2.3047,1.91023 0.43331,0.611026 0.78388,0.730175 1.56838,0.921266 0.18729,0.04562 0.35694,0.062 0.54304,0.0811 0.27428,0.02815 0.56569,0.0366 0.56569,0.0366 l 0.007,7.295151 h -10.70794 z"
       id="path484-6-23"
       sodipodi:nodetypes="csssssscccc" />
    <path
       style="fill:#00a0f0;stroke:#00a0f0;stroke-width:0.013286px;stroke-linecap:butt;stroke-linejoin:miter;stroke-opacity:1"
       d="m 256.91643,6.173345 c 0,0 0.98311,0.02704 1.80841,-0.33698 0,0 1.21872,-0.731801 1.88642,-1.271083 0.77395,-0.625097 1.48117,-1.351152 2.02461,-1.341135 1.35535,0.02498 1.4642,0.725009 2.3047,1.91023 0.43331,0.611026 0.78388,0.730175 1.56838,0.921266 0.18729,0.04562 0.35694,0.062 0.54304,0.0811 0.27428,0.02815 0.56568,0.0366 0.56568,0.0366 l 0.007,7.295151 h -10.70793 z"
       id="path484-7-75"
       sodipodi:nodetypes="csssssscccc" />
    <path
       style="fill:#00a0f0;stroke:#00a0f0;stroke-width:0.013286px;stroke-linecap:butt;stroke-linejoin:miter;stroke-opacity:1"
       d="m 267.61767,6.173343 c 0,0 0.98311,0.02704 1.80842,-0.33698 0,0 1.21872,-0.731801 1.88642,-1.271083 0.77395,-0.625097 1.48117,-1.351152 2.0246,-1.341135 1.35535,0.02498 1.46421,0.725009 2.30471,1.91023 0.43331,0.611026 0.78388,0.730175 1.56838,0.921266 0.18728,0.04562 0.35693,0.062 0.54304,0.0811 0.27428,0.02815 0.56568,0.0366 0.56568,0.0366 l 0.007,7.295151 h -10.70793 z"
       id="path484-5-9"
       sodipodi:nodetypes="csssssscccc" />
    <path
       style="fill:#00a0f0;stroke:#00a0f0;stroke-width:0.013286px;stroke-linecap:butt;stroke-linejoin:miter;stroke-opacity:1"
       d="m 278.31892,6.173341 c 0,0 0.98311,0.02704 1.80842,-0.33698 0,0 1.21872,-0.731801 1.88642,-1.271083 0.77395,-0.625097 1.48117,-1.351152 2.0246,-1.341135 1.35535,0.02498 1.4642,0.725009 2.3047,1.91023 0.43331,0.611026 0.78388,0.730175 1.56839,0.921266 0.18728,0.04562 0.35693,0.062 0.54303,0.0811 0.27429,0.02815 0.56569,0.0366 0.56569,0.0366 l 0.007,7.295151 h -10.70793 z"
       id="path484-35-2"
       sodipodi:nodetypes="csssssscccc" />
    <path
       style="fill:#00a0f0;stroke:#00a0f0;stroke-width:0.013286px;stroke-linecap:butt;stroke-linejoin:miter;stroke-opacity:1"
       d="m 289.02017,6.173339 c 0,0 0.98311,0.02704 1.80841,-0.33698 0,0 1.21872,-0.731801 1.88643,-1.271083 0.77395,-0.625097 1.48116,-1.351152 2.0246,-1.341135 1.35535,0.02498 1.4642,0.725009 2.3047,1.91023 0.43331,0.611026 0.78388,0.730175 1.56839,0.921266 0.18728,0.04562 0.35693,0.062 0.54303,0.0811 0.27429,0.02815 0.56569,0.0366 0.56569,0.0366 l 0.007,7.295151 h -10.70793 z"
       id="path484-62-2"
       sodipodi:nodetypes="csssssscccc" />
  </g>
</svg>
