<?xml version="1.0" encoding="UTF-8" standalone="no"?>
<svg
   version="1.0"
   width="651.000000pt"
   height="771.000000pt"
   viewBox="0 0 651.000000 771.000000"
   preserveAspectRatio="xMidYMid meet"
   id="svg8"
   sodipodi:docname="barrel.svg"
   inkscape:version="1.1.2 (0a00cf5339, 2022-02-04)"
   xmlns:inkscape="http://www.inkscape.org/namespaces/inkscape"
   xmlns:sodipodi="http://sodipodi.sourceforge.net/DTD/sodipodi-0.dtd"
   xmlns="http://www.w3.org/2000/svg"
   xmlns:svg="http://www.w3.org/2000/svg">
  <defs
     id="defs12" />
  <sodipodi:namedview
     id="namedview10"
     pagecolor="#ffffff"
     bordercolor="#666666"
     borderopacity="1.0"
     inkscape:pageshadow="2"
     inkscape:pageopacity="0.0"
     inkscape:pagecheckerboard="0"
     inkscape:document-units="pt"
     showgrid="false"
     inkscape:zoom="0.62645914"
     inkscape:cx="434.18634"
     inkscape:cy="509.21118"
     inkscape:window-width="3840"
     inkscape:window-height="2071"
     inkscape:window-x="0"
     inkscape:window-y="0"
     inkscape:window-maximized="1"
     inkscape:current-layer="svg8" />
  <g
     transform="translate(0.000000,771.000000) scale(0.100000,-0.100000)"
     fill="#000000"
     stroke="none"
     id="g6">
    <path
       d="M2855 7181 c-121 -4 -226 -10 -233 -15 -6 -4 -67 -11 -134 -16 -68 -5 -190 -19 -273 -30 -82 -12 -175 -25 -205 -29 -30 -3 -61 -10 -68 -15 -7 -4 -37 -12 -65 -16 -75 -12 -250 -57 -317 -81 -167 -60 -223 -85 -305 -134 -76 -45 -165 -127 -165 -151 0 -6 -7 -17 -15 -24 -11 -9 -15 -33 -15 -87 0 -71 2 -76 40 -128 22 -30 52 -62 65 -71 l25 -16 0 -673 c0 -370 -3 -680 -6 -689 -3 -9 -10 -16 -15 -16 -12 0 -78 -72 -79 -86 0 -6 -7 -17 -15 -24 -21 -18 -21 -162 0 -180 8 -7 15 -18 15 -24 0 -6 23 -33 50 -60 l50 -49 0 -762 c0 -420 -3 -770 -6 -779 -3 -9 -10 -16 -15 -16 -12 0 -78 -72 -79 -86 0 -6 -7 -17 -15 -24 -21 -18 -21 -162 0 -180 8 -7 15 -16 15 -21 0 -10 28 -46 54 -68 10 -9 24 -22 32 -29 12 -11 14 -123 14 -671 l0 -657 -50 -49 c-27 -27 -50 -53 -50 -58 0 -5 -7 -15 -15 -23 -23 -24 -23 -158 1 -181 8 -8 14 -19 14 -25 0 -6 14 -24 30 -40 17 -15 30 -33 30 -38 0 -6 6 -10 13 -10 7 0 18 -13 24 -30 9 -24 17 -30 42 -30 24 0 31 -4 31 -20 0 -16 7 -20 31 -20 17 0 72 -18 121 -40 50 -22 98 -40 107 -40 9 0 21 -4 26 -9 11 -10 106 -38 170 -50 23 -4 47 -11 55 -16 8 -5 35 -12 60 -16 25 -4 95 -17 155 -29 61 -11 147 -25 192 -30 45 -4 87 -11 93 -15 6 -3 59 -10 118 -15 59 -5 159 -15 222 -22 161 -17 1159 -17 1330 1 69 7 168 16 221 20 53 5 102 11 108 15 6 4 48 11 94 17 45 5 132 18 192 29 61 12 124 23 140 26 17 3 53 11 80 19 28 8 77 21 110 31 103 28 190 58 193 66 2 4 11 8 21 8 10 0 45 14 79 30 34 17 66 30 71 30 5 0 11 3 13 8 4 10 65 52 76 52 14 0 107 102 125 136 26 51 30 98 12 159 -13 45 -28 68 -75 115 l-60 58 0 651 c0 358 3 651 8 651 18 1 92 79 113 120 50 96 24 195 -75 288 l-46 43 0 765 c0 420 4 764 8 764 16 0 100 90 118 127 11 22 18 60 18 93 1 67 -34 134 -101 194 l-43 40 0 661 0 662 41 41 c22 23 45 42 50 42 5 0 9 7 9 15 0 8 4 15 9 15 16 0 43 109 37 148 -9 49 -26 92 -37 92 -5 0 -9 4 -9 10 0 12 -68 80 -80 80 -6 0 -10 4 -10 9 0 9 -115 81 -129 81 -5 0 -14 7 -21 15 -7 8 -23 15 -36 15 -13 0 -24 3 -24 8 0 4 -33 18 -72 31 -40 13 -86 30 -103 37 -42 18 -229 64 -297 74 -31 4 -61 11 -68 15 -7 4 -37 11 -68 16 -32 4 -122 17 -202 28 -80 12 -197 25 -260 30 -63 6 -146 14 -185 20 -93 13 -753 21 -1030 12z m1070 -161 c55 -6 146 -14 201 -19 56 -5 106 -11 112 -15 6 -3 48 -10 94 -15 45 -5 135 -19 198 -31 63 -12 133 -25 155 -29 23 -4 47 -11 55 -16 8 -5 32 -12 55 -16 22 -4 72 -17 110 -28 39 -12 86 -26 105 -31 19 -5 36 -14 38 -19 2 -6 14 -11 26 -11 12 0 26 -4 32 -9 5 -5 26 -14 47 -21 20 -6 37 -16 37 -21 0 -5 7 -9 15 -9 8 0 38 -22 67 -49 51 -48 53 -52 52 -100 0 -43 -5 -54 -36 -85 -20 -20 -41 -36 -47 -36 -6 0 -11 -3 -11 -7 0 -5 -37 -25 -83 -47 -45 -21 -95 -44 -110 -52 -16 -8 -39 -14 -51 -14 -12 0 -26 -4 -32 -9 -9 -9 -104 -36 -182 -52 -24 -5 -48 -12 -55 -16 -6 -4 -29 -10 -52 -14 -22 -4 -92 -17 -155 -29 -63 -11 -155 -25 -203 -30 -48 -5 -93 -12 -99 -16 -6 -4 -58 -10 -117 -15 -58 -4 -164 -13 -236 -20 -176 -17 -985 -17 -1170 0 -77 7 -188 16 -247 21 -59 4 -112 11 -117 15 -6 3 -48 10 -94 16 -45 5 -131 18 -192 29 -60 12 -133 25 -161 29 -28 5 -61 14 -72 20 -11 6 -32 11 -46 11 -14 0 -35 4 -48 9 -13 6 -57 20 -98 32 -41 11 -88 27 -105 34 -104 46 -126 55 -135 55 -5 0 -10 5 -10 10 0 6 -6 10 -13 10 -15 0 -42 20 -95 69 -33 30 -37 38 -37 84 0 31 5 52 13 55 6 2 12 9 12 15 1 25 111 91 255 151 42 18 119 42 195 61 36 9 81 21 100 27 19 6 53 15 75 19 183 36 271 51 340 59 44 5 98 14 120 19 22 6 64 11 94 11 29 0 81 5 115 10 33 6 129 15 211 20 190 11 1047 4 1180 -10z m-2563 -757 c3 -8 88 -42 126 -50 12 -3 22 -9 22 -14 0 -5 11 -9 24 -9 13 0 37 -6 53 -14 15 -8 51 -20 78 -26 28 -7 77 -19 110 -27 33 -8 83 -18 110 -22 28 -5 70 -13 95 -19 105 -26 349 -58 535 -72 66 -5 152 -13 190 -19 89 -13 1035 -14 1130 -1 39 6 126 14 195 19 108 9 189 19 480 61 30 4 73 13 95 18 22 6 85 20 140 32 55 12 110 26 123 31 13 5 32 9 43 9 12 0 33 6 47 14 15 7 54 23 87 34 33 11 77 27 98 36 l37 16 -2 -817 -3 -817 -25 -13 c-60 -29 -94 -43 -110 -43 -9 0 -21 -5 -27 -11 -6 -6 -26 -14 -44 -19 -19 -5 -72 -20 -119 -33 -126 -35 -180 -49 -230 -58 -206 -37 -298 -51 -378 -59 -51 -5 -97 -12 -103 -16 -10 -6 -121 -15 -419 -34 -189 -12 -715 -11 -900 1 -354 23 -408 27 -418 33 -6 4 -51 11 -99 16 -119 12 -291 39 -327 50 -16 6 -45 10 -65 10 -20 1 -47 7 -61 15 -14 8 -36 14 -49 15 -14 0 -38 4 -55 10 -17 5 -65 19 -106 31 -41 12 -89 28 -107 35 -17 8 -35 14 -40 14 -6 0 -23 6 -39 13 -16 8 -48 22 -71 33 l-43 19 0 818 c0 726 3 851 22 810z m8 -1798 c7 -8 18 -15 25 -15 13 0 107 -35 137 -51 10 -5 27 -9 39 -9 11 0 33 -6 47 -14 24 -13 131 -39 262 -66 25 -5 68 -14 95 -20 28 -7 77 -16 110 -20 241 -34 401 -52 530 -60 83 -5 193 -14 245 -20 148 -15 691 -12 865 5 83 8 180 15 217 15 37 0 98 5 135 10 78 12 287 39 384 49 36 4 71 11 78 16 7 4 38 11 69 15 51 7 144 28 272 60 25 6 49 15 55 21 5 5 18 9 30 9 25 0 137 40 198 71 16 9 17 -37 17 -898 0 -500 -4 -913 -8 -919 -4 -7 -26 -17 -49 -24 -24 -7 -43 -16 -43 -20 0 -4 -12 -10 -27 -13 -29 -5 -86 -24 -114 -37 -8 -4 -55 -17 -105 -29 -49 -12 -111 -28 -139 -36 -27 -8 -63 -16 -80 -19 -77 -11 -224 -37 -263 -46 -23 -6 -64 -10 -90 -10 -26 0 -65 -5 -87 -11 -40 -10 -144 -20 -430 -38 -189 -13 -765 -13 -950 0 -332 22 -394 27 -404 33 -6 4 -52 11 -103 16 -51 5 -147 18 -213 30 -66 12 -140 25 -165 29 -25 4 -51 10 -58 14 -6 5 -33 12 -60 17 -66 12 -164 38 -184 50 -10 6 -28 10 -40 10 -13 0 -32 7 -42 15 -11 8 -26 15 -33 15 -8 0 -45 15 -84 32 l-69 33 0 912 c0 517 4 913 9 913 5 0 14 -7 21 -15z m0 -1980 c7 -8 20 -15 29 -15 9 0 21 -4 27 -9 5 -4 41 -18 79 -31 39 -12 86 -28 105 -35 50 -18 224 -60 310 -75 25 -4 70 -13 100 -18 177 -35 365 -58 580 -72 74 -5 178 -13 230 -19 123 -14 757 -14 880 0 52 6 158 14 235 19 146 9 354 32 465 50 139 24 397 78 428 91 13 5 32 9 42 9 11 0 34 6 52 14 18 8 65 24 103 36 39 13 74 27 80 31 5 5 19 9 31 9 12 0 25 6 27 13 3 6 6 -349 6 -791 1 -756 0 -803 -16 -809 -10 -4 -24 -13 -31 -20 -7 -7 -22 -13 -32 -13 -10 0 -21 -4 -24 -8 -3 -4 -28 -14 -56 -22 -28 -8 -53 -18 -56 -22 -3 -4 -16 -8 -30 -8 -14 0 -35 -5 -47 -12 -12 -6 -38 -15 -57 -19 -19 -5 -75 -18 -125 -29 -49 -12 -117 -25 -150 -29 -33 -5 -73 -14 -88 -20 -16 -6 -44 -11 -63 -11 -19 0 -54 -4 -77 -10 -104 -24 -459 -52 -867 -68 -308 -12 -877 16 -1180 59 -41 6 -107 14 -147 19 -40 5 -77 11 -83 15 -6 4 -36 11 -68 16 -50 8 -163 32 -272 59 -19 4 -48 13 -65 19 -121 43 -203 71 -212 71 -6 0 -16 7 -23 15 -7 8 -19 15 -27 15 -44 0 -43 -16 -43 824 0 450 4 796 9 796 5 0 14 -7 21 -15z"
       id="path4"
       style="fill:#ecd450" />
  </g>
  <path
     style="fill:#fcfc3c;stroke:#b47800;stroke-width:1.59627"
     d="m 351.97826,446.8678 c -41.03173,-3.2224 -85.68167,-10.08964 -117.32609,-18.04496 -14.0595,-3.53453 -43.73289,-13.59734 -50.66164,-17.18034 l -4.40978,-2.28039 0.0218,-104.11584 c 0.012,-57.26371 0.43094,-105.64033 0.93101,-107.5036 l 0.90921,-3.38777 8.24756,3.03906 c 4.53616,1.67149 9.68421,3.69894 11.44011,4.50546 18.03251,8.28264 72.94036,19.24825 125.30746,25.02505 35.30824,3.89498 167.95946,4.8231 202.9831,1.42021 63.05302,-6.12622 116.56118,-16.54395 147.2386,-28.6665 l 14.20618,-5.61375 -1.15142,108.0889 c -0.63329,59.44889 -1.74328,108.69635 -2.46664,109.43881 -1.2863,1.32021 -16.06295,6.97415 -30.38125,11.62465 -32.90031,10.68584 -95.2631,21.12374 -146.49067,24.5187 -32.99946,2.18696 -125.98809,1.67757 -158.39753,-0.86769 z"
     id="path1521"
     transform="scale(0.75)" />
  <path
     style="fill:#fcfc3c;stroke:#b47800;stroke-width:1.59627"
     d="M 382.30745,712.71001 C 304.23259,709.37775 240.14267,698.1152 193.54814,679.53919 l -13.96739,-5.56842 V 553.57192 433.17306 l 3.59161,1.07892 c 1.97539,0.59341 7.90155,2.68863 13.16925,4.65605 53.86572,20.11815 142.17213,32.00374 237.04659,31.90525 99.26342,-0.10305 185.99061,-11.35811 241.03727,-31.28074 4.82872,-1.74762 9.92652,-3.54088 11.32841,-3.985 2.1282,-0.67423 2.72103,1.22849 3.59162,11.5276 1.35052,15.97664 1.35118,156.96765 9.2e-4,197.28461 l -1.04177,31.10607 -7.33866,3.28317 c -32.61852,14.59283 -97.72682,27.56379 -162.17717,32.30914 -31.24287,2.30036 -101.39378,3.14942 -136.48137,1.65188 z"
     id="path1634"
     transform="scale(0.75)" />
  <path
     style="fill:#b4fc00;stroke:#b47800;stroke-width:1.59627"
     d="m 400.6646,948.0435 c -90.75869,-4.55235 -144.78436,-12.56979 -192.35094,-28.54502 -23.51718,-7.89823 -26.60712,-9.7555 -27.7529,-16.68138 -1.15533,-6.98361 -1.31012,-206.04381 -0.16022,-206.04381 0.45089,0 2.06712,0.70959 3.59162,1.57687 1.5245,0.86727 11.03253,4.36406 21.12896,7.77064 53.99358,18.21766 139.41303,28.95627 230.36669,28.96083 95.39977,0.005 184.25835,-11.58066 237.9838,-31.02848 l 14.95889,-5.41489 1.18134,50.40652 c 0.64973,27.72358 0.86615,74.78787 0.4809,104.58731 -0.80876,62.56236 1.07683,56.34968 -19.34022,63.72232 -37.43655,13.51841 -90.14419,23.25964 -149.56929,27.64281 -32.73751,2.41472 -99.47763,4.10166 -120.51863,3.04628 z"
     id="path1673"
     transform="scale(0.75)" />
  <path
     style="fill:#b4fc00;stroke:#b47800;stroke-width:1.59627"
     d="m 340.80435,207.40466 c -13.60823,-1.16114 -28.69301,-2.87053 -33.52174,-3.79865 -4.82873,-0.92813 -18.1177,-3.1474 -29.53106,-4.93171 -68.43173,-10.69834 -115.11979,-30.56591 -114.60382,-48.76834 0.64906,-22.89769 70.68594,-45.00959 180.05103,-56.845351 27.95274,-3.025114 160.76858,-2.342603 193.94893,0.996661 26.37666,2.654544 89.28151,12.72358 93.83906,15.02061 1.50356,0.7578 8.12117,2.63554 14.7058,4.17276 24.90762,5.81482 49.8164,17.29913 58.60952,27.02222 4.81053,5.31928 5.46658,6.97268 4.6829,11.80188 -1.26469,7.79345 -5.74707,11.95889 -21.63585,20.10601 -11.99964,6.15293 -42.38792,16.97764 -47.66147,16.97764 -1.0257,0 -4.94332,1.04515 -8.70585,2.32256 -3.76251,1.2774 -17.9745,4.14492 -31.58217,6.37226 -13.60769,2.22734 -29.18209,4.78267 -34.60979,5.6785 -38.63499,6.37664 -168.35527,8.61964 -223.98549,3.87295 z"
     id="path1749"
     transform="scale(0.75)" />
  <path
     style="fill:#b4fc00;stroke:#b47800;stroke-width:1.59627"
     d="m 379.11491,446.77011 c -69.46311,-2.76275 -136.6182,-14.68255 -184.76864,-32.7958 l -13.16925,-4.95402 0.0244,-103.94493 c 0.0135,-57.16971 0.61794,-104.88062 1.34332,-106.02425 1.03828,-1.63695 3.95325,-1.03283 13.70172,2.83968 23.11469,9.18214 60.92388,17.44587 109.69689,23.9758 42.22332,5.65304 144.30054,8.08212 204.86406,4.87505 63.30653,-3.35232 134.88677,-16.7856 175.44308,-32.92494 2.98369,-1.18736 3.02321,0.76351 1.94554,96.02914 -0.60502,53.48261 -1.53107,101.68275 -2.05789,107.11139 l -0.95787,9.87028 -7.37978,3.17468 c -27.49027,11.82601 -81.53475,23.29579 -140.65457,29.85092 -22.22009,2.46374 -122.76502,4.31964 -158.03105,2.917 z"
     id="path1788"
     transform="scale(0.75)" />
  <path
     style="fill:#b4fc00;stroke:#b47800;stroke-width:1.59627"
     d="M 352.7764,709.52681 C 282.60087,703.65797 227.90248,692.35125 187.16304,675.29282 l -5.98602,-2.50647 V 553.92556 435.06477 l 13.16925,4.85571 c 40.61258,14.97449 101.60839,25.82061 170.29923,30.28218 38.38117,2.4929 140.01854,1.08434 174.09674,-2.41277 52.86261,-5.42476 91.20583,-12.58525 125.7038,-23.47485 11.63136,-3.67154 21.68788,-6.13618 22.34783,-5.47698 1.6758,1.67391 2.54586,146.44703 1.17363,195.2866 l -1.13261,40.31099 -7.16348,3.16875 c -25.52599,11.29136 -72.93708,21.8763 -129.75526,28.969 -22.62927,2.82485 -37.24146,3.35834 -103.75776,3.78814 -42.58059,0.27513 -84.60249,-0.10057 -93.38199,-0.83473 z"
     id="path1827"
     transform="scale(0.75)" />
</svg>
